<svg xmlns="http://www.w3.org/2000/svg" xmlns:xlink="http://www.w3.org/1999/xlink" contentStyleType="text/css" data-diagram-type="STATE" height="1429px" preserveAspectRatio="none" style="width:617px;height:1429px;background:#FFFFFF;" version="1.1" viewBox="0 0 617 1429" width="617px" zoomAndPan="magnify"><title>Zustandsdiagramm: Datengetriebene Kalibrierung eines LFC-Systems</title><defs/><g><g class="title" data-source-line="1"><text fill="#000000" font-family="sans-serif" font-size="14" font-weight="bold" lengthAdjust="spacing" textLength="552.7129" x="22.0633" y="22.9951">Zustandsdiagramm: Datengetriebene Kalibrierung eines LFC-Systems</text></g><path d="M165.01,251.2969 L445.837,251.2969 A12.5,12.5 0 0 1 458.337,263.7969 L458.337,277.5938 L152.51,277.5938 L152.51,263.7969 A12.5,12.5 0 0 1 165.01,251.2969" fill="#F1F1F1"/><rect fill="none" height="390.0625" rx="12.5" ry="12.5" style="stroke:#181818;stroke-width:0.5;" width="305.827" x="152.51" y="251.2969"/><line style="stroke:#181818;stroke-width:0.5;" x1="152.51" x2="458.337" y1="277.5938" y2="277.5938"/><text fill="#000000" font-family="sans-serif" font-size="14" lengthAdjust="spacing" textLength="149.0781" x="230.8844" y="269.292">Initial Lab Calibration</text><g id="InitCalib.CapturingTargets"><rect fill="#F1F1F1" height="50.2656" rx="12.5" ry="12.5" style="stroke:#181818;stroke-width:0.5;" width="236.8262" x="164.51" y="345.5938"/><line style="stroke:#181818;stroke-width:0.5;" x1="164.51" x2="401.3362" y1="371.8906" y2="371.8906"/><text fill="#000000" font-family="sans-serif" font-size="14" lengthAdjust="spacing" textLength="122.1787" x="221.8337" y="363.5889">CapturingTargets</text><text fill="#000000" font-family="sans-serif" font-size="12" lengthAdjust="spacing" textLength="216.8262" x="169.51" y="388.0293">Checkerboard-Aufnahmen sammeln</text></g><g id="InitCalib.EstimatingParameters"><rect fill="#F1F1F1" height="64.2344" rx="12.5" ry="12.5" style="stroke:#181818;stroke-width:0.5;" width="193.5137" x="186.17" y="448.8638"/><line style="stroke:#181818;stroke-width:0.5;" x1="186.17" x2="379.6837" y1="475.1606" y2="475.1606"/><text fill="#000000" font-family="sans-serif" font-size="14" lengthAdjust="spacing" textLength="155.6338" x="205.1099" y="466.8589">EstimatingParameters</text><text fill="#000000" font-family="sans-serif" font-size="12" lengthAdjust="spacing" textLength="173.5137" x="191.17" y="491.2993">Intrinsics/Extrinsics sch&#228;tzen</text><text fill="#000000" font-family="sans-serif" font-size="12" lengthAdjust="spacing" textLength="159.082" x="191.17" y="505.268">(OpenCV, StereoCalib, BA)</text></g><g id="InitCalib.BaselineReady"><rect fill="#F1F1F1" height="50.2656" rx="12.5" ry="12.5" style="stroke:#181818;stroke-width:0.5;" width="220.1738" x="172.84" y="581.0938"/><line style="stroke:#181818;stroke-width:0.5;" x1="172.84" x2="393.0138" y1="607.3906" y2="607.3906"/><text fill="#000000" font-family="sans-serif" font-size="14" lengthAdjust="spacing" textLength="103.4482" x="231.2028" y="599.0889">BaselineReady</text><text fill="#000000" font-family="sans-serif" font-size="12" lengthAdjust="spacing" textLength="200.1738" x="177.84" y="623.5293">Referenzkalibrierung gespeichert</text></g><ellipse cx="282.92" cy="298.5938" fill="#222222" rx="10" ry="10" style="stroke:#222222;stroke-width:1;"/><!--link *start*InitCalib to CapturingTargets--><g class="link" data-entity-1=".start.InitCalib" data-entity-2="CapturingTargets" data-source-line="6" data-uid="lnk6" id="link_.start.InitCalib_CapturingTargets"><path d="M282.92,309.0538 C282.92,318.3338 282.92,326.8538 282.92,339.3638" fill="none" id="*start*InitCalib-to-CapturingTargets" style="stroke:#181818;stroke-width:1;"/><polygon fill="#181818" points="282.92,345.3638,286.92,336.3638,282.92,340.3638,278.92,336.3638,282.92,345.3638" style="stroke:#181818;stroke-width:1;"/></g><!--link CapturingTargets to EstimatingParameters--><g class="link" data-entity-1="CapturingTargets" data-entity-2="EstimatingParameters" data-source-line="8" data-uid="lnk7" id="link_CapturingTargets_EstimatingParameters"><path d="M282.92,396.2938 C282.92,411.7637 282.92,425.8837 282.92,442.5137" fill="none" id="CapturingTargets-to-EstimatingParameters" style="stroke:#181818;stroke-width:1;"/><polygon fill="#181818" points="282.92,448.5137,286.92,439.5137,282.92,443.5137,278.92,439.5137,282.92,448.5137" style="stroke:#181818;stroke-width:1;"/><text fill="#000000" font-family="sans-serif" font-size="13" lengthAdjust="spacing" textLength="112.8613" x="283.92" y="426.9306">Posen vorhanden</text></g><!--link EstimatingParameters to BaselineReady--><g class="link" data-entity-1="EstimatingParameters" data-entity-2="BaselineReady" data-source-line="11" data-uid="lnk8" id="link_EstimatingParameters_BaselineReady"><path d="M282.92,513.4038 C282.92,534.3738 282.92,555.5338 282.92,574.8638" fill="none" id="EstimatingParameters-to-BaselineReady" style="stroke:#181818;stroke-width:1;"/><polygon fill="#181818" points="282.92,580.8638,286.92,571.8638,282.92,575.8638,278.92,571.8638,282.92,580.8638" style="stroke:#181818;stroke-width:1;"/><text fill="#000000" font-family="sans-serif" font-size="13" lengthAdjust="spacing" textLength="107.6626" x="310.231" y="544.1606">Parameter stabil</text><text fill="#000000" font-family="sans-serif" font-size="13" lengthAdjust="spacing" textLength="164.417" x="283.92" y="559.2935">(ReprojectionError &lt; 0.1)</text></g><path d="M19.5,718.3569 L591.3395,718.3569 A12.5,12.5 0 0 1 603.8395,730.8569 L603.8395,744.6538 L7,744.6538 L7,730.8569 A12.5,12.5 0 0 1 19.5,718.3569" fill="#F1F1F1"/><rect fill="none" height="622.5713" rx="12.5" ry="12.5" style="stroke:#181818;stroke-width:0.5;" width="596.8395" x="7" y="718.3569"/><line style="stroke:#181818;stroke-width:0.5;" x1="7" x2="603.8395" y1="744.6538" y2="744.6538"/><text fill="#000000" font-family="sans-serif" font-size="14" lengthAdjust="spacing" textLength="82.1406" x="264.3495" y="736.352">Operational</text><g id="Operational.HealthCheck"><rect fill="#F1F1F1" height="64.2344" rx="12.5" ry="12.5" style="stroke:#181818;stroke-width:0.5;" width="244.9063" x="78.62" y="812.6538"/><line style="stroke:#181818;stroke-width:0.5;" x1="78.62" x2="323.5263" y1="838.9506" y2="838.9506"/><text fill="#000000" font-family="sans-serif" font-size="14" lengthAdjust="spacing" textLength="89.0381" x="156.5541" y="830.6489">HealthCheck</text><text fill="#000000" font-family="sans-serif" font-size="12" lengthAdjust="spacing" textLength="102.791" x="83.62" y="855.0893">HealthScore wird</text><text fill="#000000" font-family="sans-serif" font-size="12" lengthAdjust="spacing" textLength="224.9063" x="83.62" y="869.058">periodisch oder event-basiert gepr&#252;ft</text></g><path d="M74.95,944.8838 L305.198,944.8838 A12.5,12.5 0 0 1 317.698,957.3838 L317.698,971.1806 L62.45,971.1806 L62.45,957.3838 A12.5,12.5 0 0 1 74.95,944.8838" fill="#F1F1F1"/><rect fill="none" height="253.8012" rx="12.5" ry="12.5" style="stroke:#181818;stroke-width:0.5;" width="255.248" x="62.45" y="944.8838"/><line style="stroke:#181818;stroke-width:0.5;" x1="62.45" x2="317.698" y1="971.1806" y2="971.1806"/><text fill="#000000" font-family="sans-serif" font-size="14" lengthAdjust="spacing" textLength="92.4355" x="143.8563" y="962.8789">Recalibration</text><g id="Operational.Recalibration.UpdatingParams"><rect fill="#F1F1F1" height="50.2656" rx="12.5" ry="12.5" style="stroke:#181818;stroke-width:0.5;" width="148.3965" x="117.38" y="1038.1806"/><line style="stroke:#181818;stroke-width:0.5;" x1="117.38" x2="265.7765" y1="1064.4775" y2="1064.4775"/><text fill="#000000" font-family="sans-serif" font-size="14" lengthAdjust="spacing" textLength="116.0264" x="133.5651" y="1056.1757">UpdatingParams</text><text fill="#000000" font-family="sans-serif" font-size="12" lengthAdjust="spacing" textLength="128.3965" x="122.38" y="1080.6162">Recalibration (LiFCal)</text></g><g id="Operational.Recalibration.EvaluateUpdate"><rect fill="#F1F1F1" height="64.2344" rx="12.5" ry="12.5" style="stroke:#181818;stroke-width:0.5;" width="234.248" x="74.45" y="1124.4506"/><line style="stroke:#181818;stroke-width:0.5;" x1="74.45" x2="308.698" y1="1150.7475" y2="1150.7475"/><text fill="#000000" font-family="sans-serif" font-size="14" lengthAdjust="spacing" textLength="111.8564" x="135.6458" y="1142.4457">EvaluateUpdate</text><text fill="#000000" font-family="sans-serif" font-size="12" lengthAdjust="spacing" textLength="214.248" x="79.45" y="1166.8862">HealthScore_neu mit HealthMonitor</text><text fill="#000000" font-family="sans-serif" font-size="12" lengthAdjust="spacing" textLength="90.5215" x="79.45" y="1180.8549">neu berechnen</text></g><ellipse cx="191.57" cy="992.1806" fill="#222222" rx="10" ry="10" style="stroke:#222222;stroke-width:1;"/><!--link *start*Recalibration to UpdatingParams--><g class="link" data-entity-1=".start.Recalibration" data-entity-2="UpdatingParams" data-source-line="31" data-uid="lnk16" id="link_.start.Recalibration_UpdatingParams"><path d="M191.57,1002.5006 C191.57,1011.5006 191.57,1019.5006 191.57,1031.7006" fill="none" id="*start*Recalibration-to-UpdatingParams" style="stroke:#181818;stroke-width:1;"/><polygon fill="#181818" points="191.57,1037.7006,195.57,1028.7006,191.57,1032.7006,187.57,1028.7006,191.57,1037.7006" style="stroke:#181818;stroke-width:1;"/></g><!--link UpdatingParams to EvaluateUpdate--><g class="link" data-entity-1="UpdatingParams" data-entity-2="EvaluateUpdate" data-source-line="33" data-uid="lnk17" id="link_UpdatingParams_EvaluateUpdate"><path d="M191.57,1088.7706 C191.57,1099.6406 191.57,1106.5806 191.57,1118.1606" fill="none" id="UpdatingParams-to-EvaluateUpdate" style="stroke:#181818;stroke-width:1;"/><polygon fill="#181818" points="191.57,1124.1606,195.57,1115.1606,191.57,1119.1606,187.57,1115.1606,191.57,1124.1606" style="stroke:#181818;stroke-width:1;"/></g><g id="Operational.Rollback"><rect fill="#F1F1F1" height="64.2344" rx="12.5" ry="12.5" style="stroke:#181818;stroke-width:0.5;" width="155.4746" x="247.33" y="1266.6938"/><line style="stroke:#181818;stroke-width:0.5;" x1="247.33" x2="402.8046" y1="1292.9906" y2="1292.9906"/><text fill="#000000" font-family="sans-serif" font-size="14" lengthAdjust="spacing" textLength="59.3428" x="295.3959" y="1284.6889">Rollback</text><text fill="#000000" font-family="sans-serif" font-size="12" lengthAdjust="spacing" textLength="135.4746" x="252.33" y="1309.1293">Vorherige Kalibrierung</text><text fill="#000000" font-family="sans-serif" font-size="12" lengthAdjust="spacing" textLength="105.0996" x="252.33" y="1323.098">wiederhergestellt</text></g><ellipse cx="201.07" cy="765.6538" fill="#222222" rx="10" ry="10" style="stroke:#222222;stroke-width:1;"/><!--link *start*Operational to HealthCheck--><g class="link" data-entity-1=".start.Operational" data-entity-2="HealthCheck" data-source-line="20" data-uid="lnk12" id="link_.start.Operational_HealthCheck"><path d="M201.07,776.1138 C201.07,785.1238 201.07,793.1938 201.07,806.1838" fill="none" id="*start*Operational-to-HealthCheck" style="stroke:#181818;stroke-width:1;"/><polygon fill="#181818" points="201.07,812.1838,205.07,803.1838,201.07,807.1838,197.07,803.1838,201.07,812.1838" style="stroke:#181818;stroke-width:1;"/></g><!--link HealthCheck to HealthCheck--><g class="link" data-entity-1="HealthCheck" data-entity-2="HealthCheck" data-source-line="25" data-uid="lnk13" id="link_HealthCheck_HealthCheck"><path d="M323.87,837.2938 C334.72,838.8738 341.52,841.3638 341.52,844.7738 C341.52,848.1838 340.6582,849.8145 329.8082,851.3845" fill="none" id="HealthCheck-to-HealthCheck" style="stroke:#181818;stroke-width:1;"/><polygon fill="#181818" points="323.87,852.2438,333.3501,854.9136,328.8185,851.5277,332.2044,846.9961,323.87,852.2438" style="stroke:#181818;stroke-width:1;"/><text fill="#000000" font-family="sans-serif" font-size="13" lengthAdjust="spacing" textLength="115.7813" x="352.2427" y="841.8406">selfHealthCheck()</text><text fill="#000000" font-family="sans-serif" font-size="13" lengthAdjust="spacing" textLength="125.2266" x="347.52" y="856.9735">[HealthScore &gt; 70]</text></g><!--link HealthCheck to Recalibration--><g class="link" data-entity-1="HealthCheck" data-entity-2="Recalibration" data-source-line="28" data-uid="lnk14" id="link_HealthCheck_Recalibration"><path d="M78.4,864.9038 C63.84,872.0938 50.74,881.8038 41.07,894.8838 C18,926.1038 29.5715,954.6671 58.1015,983.3871" fill="none" id="HealthCheck-to-Recalibration" style="stroke:#181818;stroke-width:1;"/><polygon fill="#181818" points="62.33,987.6438,58.825,978.4397,58.8062,984.0965,53.1494,984.0777,62.33,987.6438" style="stroke:#181818;stroke-width:1;"/><text fill="#000000" font-family="sans-serif" font-size="13" lengthAdjust="spacing" textLength="92.2886" x="63.9853" y="907.9506">recalibration()</text><text fill="#000000" font-family="sans-serif" font-size="13" lengthAdjust="spacing" textLength="136.1191" x="42.07" y="923.0835">[HealthScore &lt;= 70]</text></g><!--link Recalibration to HealthCheck--><g class="link" data-entity-1="Recalibration" data-entity-2="HealthCheck" data-source-line="38" data-uid="lnk18" id="link_Recalibration_HealthCheck"><path d="M196.24,944.6138 C197.47,919.4638 198.3566,901.2266 199.2466,883.0466" fill="none" id="Recalibration-to-HealthCheck" style="stroke:#181818;stroke-width:1;"/><polygon fill="#181818" points="199.54,877.0538,195.1047,885.8474,199.2955,882.0478,203.0951,886.2386,199.54,877.0538" style="stroke:#181818;stroke-width:1;"/><text fill="#000000" font-family="sans-serif" font-size="13" lengthAdjust="spacing" textLength="106.3613" x="267.9994" y="907.9506">commitUpdate()</text><text fill="#000000" font-family="sans-serif" font-size="13" lengthAdjust="spacing" textLength="242.2202" x="200.07" y="923.0835">[HealthScore_neu &gt; HealthScore_alt]</text></g><!--link Recalibration to Rollback--><g class="link" data-entity-1="Recalibration" data-entity-2="Rollback" data-source-line="41" data-uid="lnk19" id="link_Recalibration_Rollback"><path d="M172.53,1198.7738 C175.07,1216.6538 180.71,1233.9438 191.07,1248.6938 C204.25,1267.4438 219.7061,1277.1619 241.3461,1284.3519" fill="none" id="Recalibration-to-Rollback" style="stroke:#181818;stroke-width:1;"/><polygon fill="#181818" points="247.04,1286.2438,239.7603,1279.61,242.2951,1284.6672,237.2379,1287.2019,247.04,1286.2438" style="stroke:#181818;stroke-width:1;"/><text fill="#000000" font-family="sans-serif" font-size="13" lengthAdjust="spacing" textLength="116.6763" x="260.2883" y="1229.7606">rollbackBaseline()</text><text fill="#000000" font-family="sans-serif" font-size="13" lengthAdjust="spacing" textLength="253.1128" x="192.07" y="1244.8935">[HealthScore_neu &lt;= HealthScore_alt]</text></g><!--link Rollback to HealthCheck--><g class="link" data-entity-1="Rollback" data-entity-2="HealthCheck" data-source-line="44" data-uid="lnk20" id="link_Rollback_HealthCheck"><path d="M403.02,1281.6838 C419.94,1274.4338 435.82,1263.9238 446.07,1248.6938 C489.98,1183.4738 495.9,955.7038 446.07,894.8838 C429.85,875.0938 382.4755,863.9105 329.7055,856.7505" fill="none" id="Rollback-to-HealthCheck" style="stroke:#181818;stroke-width:1;"/><polygon fill="#181818" points="323.76,855.9438,332.1405,861.1175,328.7146,856.616,333.2161,853.1901,323.76,855.9438" style="stroke:#181818;stroke-width:1;"/><text fill="#000000" font-family="sans-serif" font-size="13" lengthAdjust="spacing" textLength="111.7695" x="482.07" y="1076.3606">restoreBaseline()</text></g><ellipse cx="305.42" cy="53.2969" fill="#222222" rx="10" ry="10" style="stroke:#222222;stroke-width:1;"/><g id="Uncalibrated"><rect fill="#F1F1F1" height="50" rx="12.5" ry="12.5" style="stroke:#181818;stroke-width:0.5;" width="109.3867" x="250.73" y="124.2969"/><line style="stroke:#181818;stroke-width:0.5;" x1="250.73" x2="360.1167" y1="150.5938" y2="150.5938"/><text fill="#000000" font-family="sans-serif" font-size="14" lengthAdjust="spacing" textLength="89.3867" x="260.73" y="142.292">Uncalibrated</text></g><ellipse cx="305.42" cy="1412.9269" fill="none" rx="11" ry="11" style="stroke:#222222;stroke-width:1;"/><ellipse cx="305.42" cy="1412.9269" fill="#222222" rx="6" ry="6" style="stroke:#222222;stroke-width:1;"/><!--link *start* to Uncalibrated--><g class="link" data-entity-1=".start." data-entity-2="Uncalibrated" data-source-line="3" data-uid="lnk4" id="link_.start._Uncalibrated"><path d="M305.42,63.6469 C305.42,77.5769 305.42,98.2469 305.42,117.9369" fill="none" id="*start*-to-Uncalibrated" style="stroke:#181818;stroke-width:1;"/><polygon fill="#181818" points="305.42,123.9369,309.42,114.9369,305.42,118.9369,301.42,114.9369,305.42,123.9369" style="stroke:#181818;stroke-width:1;"/></g><!--link Uncalibrated to InitCalib--><g class="link" data-entity-1="Uncalibrated" data-entity-2="InitCalib" data-source-line="16" data-uid="lnk9" id="link_Uncalibrated_InitCalib"><path d="M305.42,174.6869 C305.42,193.1869 305.42,214.5369 305.42,244.8469" fill="none" id="Uncalibrated-to-InitCalib" style="stroke:#181818;stroke-width:1;"/><polygon fill="#181818" points="305.42,250.8469,309.42,241.8469,305.42,245.8469,301.42,241.8469,305.42,250.8469" style="stroke:#181818;stroke-width:1;"/><text fill="#000000" font-family="sans-serif" font-size="13" lengthAdjust="spacing" textLength="138.6709" x="306.42" y="217.3638">runInitialCalibration()</text></g><!--link InitCalib to Operational--><g class="link" data-entity-1="InitCalib" data-entity-2="Operational" data-source-line="17" data-uid="lnk10" id="link_InitCalib_Operational"><path d="M305.42,641.7069 C305.42,666.3769 305.42,686.0869 305.42,712.0169" fill="none" id="InitCalib-to-Operational" style="stroke:#181818;stroke-width:1;"/><polygon fill="#181818" points="305.42,718.0169,309.42,709.0169,305.42,713.0169,301.42,709.0169,305.42,718.0169" style="stroke:#181818;stroke-width:1;"/><text fill="#000000" font-family="sans-serif" font-size="13" lengthAdjust="spacing" textLength="218.0039" x="306.42" y="684.4238">Kalibrierungszustand gespeichert</text></g><!--link Operational to *end*--><g class="link" data-entity-1="Operational" data-entity-2=".end." data-source-line="47" data-uid="lnk22" id="link_Operational_.end."><path d="M305.42,1341.1069 C305.42,1367.9469 305.42,1383.4669 305.42,1395.4669" fill="none" id="Operational-to-*end*" style="stroke:#181818;stroke-width:1;"/><polygon fill="#181818" points="305.42,1401.4669,309.42,1392.4669,305.42,1396.4669,301.42,1392.4669,305.42,1401.4669" style="stroke:#181818;stroke-width:1;"/></g><!--SRC=[TLJ1JXin4BtlLuouDAb8Iq-L8ee4AQW8Ab0e89MWohixsNNnZYFRIO2AR-cbdy4jFzQnTwDuat2pFJDldjyRsqcd47vEhHEKsroAmeYgwiDNuP0AT4PYYeHm9fHCUMEcL01AGWld9uFUrPDrMDaakNj_3xtU0LnJ5ZAvF4yIHdK8EwSadHGApaKAWoOiDUs0iE1ZuGp-901Bc86OkAcHLFmGXbbO3gqVGHy69MOFQ58jJDuxd8v9b1KIMBu1AjfMux6FhPCL4w3YKl1bqQ7nO9VQSkrCcvALG4gu_8tCKs9PoChCVZn-N2x1PkNYdtj66b7dOe8qkDc5Awv07Qwt2qU7tRSmFQqZOL6ni4CK-PFdimm3gvXA1Omxn8dHlp7pwXqRemtimzw7JrrFThr-Y6DkJiyFiNC5sWdAh4JZafSaYTqA95Pkz84B6kCYpphTP9NZA_YgTOJzxRV6n3xNKzLgsen4N1Nx_Ws5ScNmrTyfsZ9ulRlAj46OIvEFY56apYLB3pfdfN26v7gfiCp0ST-9MRoEdKTwrrJtQh2BipNqjURSZTKSHoUTxeZkOWO7y7dlleQ-bSZTIwsSdmA5MSbNl6KA20mxn9O5WgpJYxz8MnWCCLj9xIs8zniCzhyiATIYjgkzh2jXhoVvQkXi2BMFmiJ4zPrpUS8sTxVbXcSq4shARKC8GrRxgEtOBy8fLD8rPzyrJv4s8_B7AGzgLbAGvAMMj86Grd7KMlQMMovUEPFGFt9EQjFTD33J5VUhWTQr2smEMlnuTR_HctXiOmOpD7CqupVw3xLIgGZDJRDSligj1DZ0RGmYc1l-ZdZ6Y_O7FA9vFN78lnf_m4gvk6nJ2iDPt655nZ_- -0tw4XwL_m00]--></g></svg>